<?xml version="1.0" encoding="UTF-8"?>
<svg width="247px" height="44px" viewBox="0 0 247 44" version="1.1" xmlns="http://www.w3.org/2000/svg" xmlns:xlink="http://www.w3.org/1999/xlink">
    <!-- Generator: Sketch 51.2 (57519) - http://www.bohemiancoding.com/sketch -->
    <title>logos/top comparativas</title>
    <desc>Created with Sketch.</desc>
    <defs></defs>
    <g id="Symbols" stroke="none" stroke-width="1" fill="none" fill-rule="evenodd">
        <g id="bar/topnavbarfull" transform="translate(-150.000000, -25.000000)">
            <g id="bar/topmenu">
                <g id="Group-3" transform="translate(150.000000, 25.000000)">
                    <g id="logos/top-comparativas">
                        <g id="Group-5">
                            <g id="Group-2">
                                <g id="noun_price_104115" fill="#F39323" fill-rule="nonzero">
                                    <path d="M33.9094931,0 C34.8655308,0 35.7334995,0.389644444 36.3607464,1.0164 C36.9879932,1.64315556 37.3779431,2.51044444 37.3779431,3.46573333 L37.3779431,33.8834222 C37.3779431,34.8318667 36.9928859,35.6732444 36.3739567,36.2931556 C35.7540489,36.9116 34.9022262,37.2997778 33.9691843,37.3428 L19.8688512,37.3198222 L12.501881,42.6653333 L10.3852899,44 L10.3887148,41.4983556 L10.3950753,37.3481778 L3.46796074,37.3481778 C2.5124123,37.3481778 1.6439543,36.9585333 1.01719672,36.3317778 C0.389949874,35.7050222 0,34.8377333 0,33.8829333 L0,3.46524444 C0,2.50995556 0.389949874,1.64266667 1.01719672,1.01591111 C1.64444357,0.389155556 2.5124123,0 3.46796074,0 L33.9094931,0 Z" id="Shape"></path>
                                </g>
                                <g id="icons/logo" transform="translate(45.943686, 0.120383)">
                                    <g>
                                        <g id="Group" fill-rule="nonzero">
                                            <g transform="translate(1.732490, 0.034083)" fill="#003049" id="Shape">
                                                <polygon points="4.71928223 4.70728867 0.0268128779 4.70728867 0.826840439 0.241453791 15.1811811 0.241453791 14.3811535 4.70728867 9.6886842 4.70728867 7.22706093 18.5315625 2.24227382 18.5315625"></polygon>
                                                <path d="M13.688822,11.9776069 C13.688822,10.9106839 13.8119032,9.82851912 14.0119101,8.74635435 C14.8888633,3.83850851 16.9504728,0.0280691896 22.7199024,0.0280691896 C28.6585685,0.0280691896 30.2278533,3.16787119 30.2278533,6.8716182 C30.2278533,7.93854121 30.1047722,9.05118949 29.9047653,10.1333543 C29.027812,15.0259583 26.9662025,18.7754306 21.0583067,18.7754306 C15.2581068,18.7601889 13.688822,15.6508704 13.688822,11.9776069 Z M24.8584376,9.84376087 C25.0276742,8.89877192 25.1353702,8.06047527 25.1353702,7.32887092 C25.1353702,5.74372817 24.581505,4.73777219 22.6737469,4.73777219 C20.1813534,4.73777219 19.5351773,6.36864021 19.0120823,9.35602464 C18.8582309,10.3010136 18.7197646,11.1393102 18.7197646,11.8556728 C18.7197646,13.4560573 19.3197852,14.4467716 21.2583135,14.4467716 C23.6891665,14.4467716 24.3045723,12.8616288 24.8584376,9.84376087 Z"></path>
                                                <path d="M33.4279636,0.241453791 L39.612792,0.241453791 C44.905282,0.241453791 46.3976411,2.22288224 46.3976411,5.05784909 C46.3976411,5.69800289 46.3207154,6.36864021 46.1976343,7.05451929 C45.5668433,10.5601235 43.951403,12.9530794 39.3666297,12.9530794 L36.0280531,12.9530794 L35.0280187,18.5315625 L30.1663127,18.5315625 L33.4279636,0.241453791 Z M39.289704,8.99022247 C40.5051305,8.99022247 41.0282254,8.4415192 41.305158,6.91734348 C41.3513134,6.56678306 41.3974689,6.27718967 41.3974689,6.00283804 C41.3974689,5.01212382 40.9051442,4.49390407 39.4281703,4.49390407 L37.5050271,4.49390407 L36.7049995,8.99022247 L39.289704,8.99022247 Z"></path>
                                            </g>
                                            <g transform="translate(0.040124, 18.171774)" fill="#043148" id="Shape">
                                                <path d="M0.0268128779,15.0259583 C0.0268128779,14.0962112 0.134508896,13.1054969 0.319130641,11.9928486 C1.18069878,7.17645335 2.91922021,4.7682557 7.45783811,4.7682557 C9.84253565,4.7682557 11.0579621,5.24075018 11.996456,5.75896992 L9.6886842,9.08167301 C9.1809744,8.76159611 8.504028,8.51772799 7.41168267,8.51772799 C5.68854639,8.51772799 4.99621485,9.50844221 4.42696447,12.5110684 C4.28849816,13.3341233 4.21157243,14.0200024 4.21157243,14.6144309 C4.21157243,16.1538484 4.82697825,16.8549692 6.55011453,16.8549692 C7.30398666,16.8549692 7.95016276,16.7177934 8.81173091,16.4282 L9.8271505,19.568002 C8.31940625,20.2081558 6.93474317,20.3453316 5.8270127,20.3453316 C1.4576314,20.3148481 0.0268128779,18.2724526 0.0268128779,15.0259583 Z"></path>
                                                <path d="M11.2425839,14.8430573 C11.2425839,13.9590353 11.3502799,13.0140464 11.5041314,12.0233322 C12.3349292,7.31362917 14.2426872,4.7682557 18.9043863,4.7682557 C23.4430042,4.7682557 24.8584376,6.99355226 24.8584376,10.2400466 C24.8584376,11.1393102 24.7507416,12.1300245 24.5661198,13.1359804 C23.7045517,17.9676175 21.9044897,20.3453316 17.18125,20.3453316 C12.7195578,20.3453316 11.2425839,18.1352768 11.2425839,14.8430573 Z M20.4736711,12.8463871 C20.6275226,11.9623651 20.7659889,11.2307608 20.7659889,10.6058487 C20.7659889,9.27981585 20.2582791,8.50248623 18.5659131,8.50248623 C16.5196888,8.50248623 16.0427492,9.9047279 15.5811949,12.4653431 C15.4273434,13.288398 15.3350326,14.0352441 15.3350326,14.6449144 C15.3350326,16.0014308 15.8427424,16.8244857 17.4889529,16.8244857 C19.5659475,16.8397275 20.0275019,15.4832111 20.4736711,12.8463871 Z"></path>
                                                <path d="M27.8585409,5.27123369 L31.1663472,5.01212382 L31.1971175,6.07904683 C31.9817599,5.30171721 33.4279636,4.78349746 35.274181,4.78349746 C37.1511688,4.78349746 38.0588923,5.17978315 38.6281427,6.17049737 C39.4897109,5.37792599 40.8897591,4.78349746 43.212916,4.78349746 C47.3669053,4.78349746 47.3976756,7.63370607 46.8591955,10.6058487 L45.1668295,20.1167053 L41.1205363,20.1167053 L42.7052062,11.2612443 C43.0282943,9.4779587 43.1359903,8.60917853 41.1820768,8.60917853 C39.4897109,8.60917853 39.0589268,9.61513451 38.7204536,11.6118047 L37.2127093,20.1167053 L33.1818012,20.1167053 L34.7357009,11.2612443 C35.058789,9.4779587 35.166485,8.60917853 33.2279567,8.60917853 C31.5048204,8.60917853 31.1048066,9.61513451 30.7355631,11.6118047 L29.2278189,20.1167053 L25.1969108,20.1167053 L27.8585409,5.27123369 Z"></path>
                                                <path d="M50.1823869,5.27123369 L53.4901932,5.01212382 L53.5363486,6.07904683 C54.5363831,5.17978315 55.9210462,4.78349746 57.7211082,4.78349746 C61.2289213,4.78349746 62.1981855,6.82589293 62.1981855,9.53892573 C62.1981855,10.6363323 62.044334,11.8709146 61.828942,13.0445299 C61.0750699,17.1902879 59.7673325,20.2996064 55.905661,20.2996064 C53.3824972,20.2996064 52.413233,19.7356613 51.7978272,18.9735735 L50.8593333,24.3234303 L46.8130401,24.3234303 L50.1823869,5.27123369 Z M57.6749527,12.8921123 C57.8288042,11.9623651 57.9672705,11.1697938 57.9672705,10.5296399 C57.9672705,9.23409058 57.5057161,8.50248623 56.013357,8.50248623 C53.9517475,8.50248623 53.4594229,9.6913433 52.9209428,12.4043761 C52.7670913,13.1969475 52.6747805,13.9437936 52.6747805,14.5534639 C52.6747805,15.9861891 53.1824903,16.7940022 55.0133226,16.7940022 C56.7056886,16.8092439 57.1518578,15.6661122 57.6749527,12.8921123 Z"></path>
                                                <path d="M62.3366518,16.5196506 C62.3366518,11.596563 64.8905859,10.1333543 69.552285,10.1333543 L71.3985024,10.1333543 C71.5831242,8.95973895 71.3985024,8.35006866 69.552285,8.35006866 C68.2445476,8.35006866 66.9829657,8.50248623 66.0906273,8.85304665 L64.9675117,5.49986005 C66.490641,4.92067327 68.2907031,4.70728867 70.1676908,4.70728867 C75.3678699,4.70728867 75.9832758,6.67347536 75.3217145,10.3619806 L74.4293761,15.4374858 C74.2755246,16.367233 74.2755246,16.6111011 75.2601739,16.6111011 L74.6447681,20.0862218 C74.213984,20.131947 73.7524297,20.131947 73.3831862,20.131947 C71.6600499,20.131947 71.0446441,19.8423536 70.8138669,18.94309 C69.875373,19.8271119 68.4291694,20.2691228 66.9521954,20.2691228 C63.4289971,20.2843646 62.3366518,18.7449471 62.3366518,16.5196506 Z M70.6600155,14.5687056 L70.9215629,12.9683211 L69.767677,12.9683211 C67.2752835,12.9683211 66.3367896,13.5322661 66.3367896,15.5746616 C66.3367896,16.5348923 66.8752697,16.9769033 68.2137773,16.9769033 C69.4753593,16.992145 70.2753868,16.5196506 70.6600155,14.5687056 Z"></path>
                                                <path d="M79.2603117,5.27123369 L82.568118,5.01212382 L82.6142734,6.26194791 C83.4450713,5.37792599 84.6758829,4.90543152 86.8759587,4.90543152 L86.1990123,8.70062908 C82.7373546,8.70062908 82.4758071,10.0571455 82.1219488,11.9471234 L80.6757451,20.1014635 L76.5986816,20.1014635 L79.2603117,5.27123369 Z"></path>
                                                <path d="M85.3374442,16.5196506 C85.3374442,11.596563 87.8913783,10.1333543 92.5530774,10.1333543 L94.3992948,10.1333543 C94.5839166,8.95973895 94.3992948,8.35006866 92.5530774,8.35006866 C91.24534,8.35006866 89.9837581,8.50248623 89.0914197,8.85304665 L87.968304,5.49986005 C89.4914334,4.92067327 91.2914954,4.70728867 93.1684832,4.70728867 C98.3686623,4.70728867 98.9840682,6.67347536 98.3225069,10.3619806 L97.4301685,15.4374858 C97.276317,16.367233 97.276317,16.6111011 98.2609663,16.6111011 L97.6455605,20.0862218 C97.2147764,20.131947 96.7532221,20.131947 96.3839786,20.131947 C94.6608423,20.131947 94.0454365,19.8423536 93.8146593,18.94309 C92.8761654,19.8271119 91.4299618,20.2691228 89.9529878,20.2691228 C86.4297895,20.2843646 85.3374442,18.7449471 85.3374442,16.5196506 Z M93.6454227,14.5687056 L93.9069702,12.9683211 L92.7530843,12.9683211 C90.2606907,12.9683211 89.3221968,13.5322661 89.3221968,15.5746616 C89.3221968,16.5348923 89.8606769,16.9769033 91.1991846,16.9769033 C92.4761516,16.992145 93.2761792,16.5196506 93.6454227,14.5687056 Z"></path>
                                                <path d="M101.353381,5.02736557 L103.907315,5.02736557 L105.138126,1.64369546 L108.492088,0.927332869 L107.768986,5.02736557 L110.984482,5.02736557 L110.338305,8.53296975 L107.138195,8.53296975 L105.984309,15.0259583 C105.799688,16.0928814 105.845843,16.6263429 107.399743,16.6263429 L108.907487,16.6263429 L108.292081,20.1014635 C107.568979,20.1776723 106.876648,20.2386393 106.276627,20.2386393 C102.168793,20.2386393 101.29184,18.6687383 101.953401,15.0259583 L103.076517,8.53296975 L100.72259,8.53296975 L101.353381,5.02736557 Z"></path>
                                                <path d="M113.323024,5.02736557 L117.369317,5.02736557 L114.692302,20.1014635 L110.646008,20.1014635 L113.323024,5.02736557 Z M114.199977,0.0280691896 L118.307811,0.0280691896 L117.630864,3.67084918 L113.523031,3.67084918 L114.199977,0.0280691896 Z"></path>
                                                <polygon points="118.815521 5.02736557 123.00028 5.02736557 124.000315 14.4162881 128.154304 5.02736557 132.339063 5.02736557 125.046504 20.2386393 120.692508 20.2386393"></polygon>
                                                <path d="M130.462076,16.5196506 C130.462076,11.596563 133.01601,10.1333543 137.677709,10.1333543 L139.523926,10.1333543 C139.708548,8.95973895 139.523926,8.35006866 137.677709,8.35006866 C136.369971,8.35006866 135.10839,8.50248623 134.216051,8.85304665 L133.092936,5.49986005 C134.616065,4.92067327 136.416127,4.70728867 138.293115,4.70728867 C143.493294,4.70728867 144.1087,6.67347536 143.447138,10.3619806 L142.5548,15.4374858 C142.400948,16.367233 142.400948,16.6111011 143.385598,16.6111011 L142.770192,20.0862218 C142.339408,20.131947 141.877854,20.131947 141.50861,20.131947 C139.785474,20.131947 139.170068,19.8423536 138.939291,18.94309 C138.000797,19.8271119 136.554593,20.2691228 135.077619,20.2691228 C131.554421,20.2843646 130.462076,18.7449471 130.462076,16.5196506 Z M138.785439,14.5687056 L139.046987,12.9683211 L137.893101,12.9683211 C135.400707,12.9683211 134.462213,13.5322661 134.462213,15.5746616 C134.462213,16.5348923 135.000694,16.9769033 136.339201,16.9769033 C137.600783,16.992145 138.400811,16.5196506 138.785439,14.5687056 Z"></path>
                                                <path d="M143.924078,18.7754306 L145.985687,15.6965957 C146.954952,16.306266 148.401155,16.992145 150.308913,16.992145 C151.201252,16.992145 151.816657,16.7482769 151.816657,15.7423209 C151.816657,14.9649913 151.355103,14.736365 149.355034,13.8218595 C147.293425,12.8616288 146.047228,11.8556728 146.047228,9.67610154 C146.047228,5.66751938 149.155027,4.75301394 151.816657,4.75301394 C154.1552,4.75301394 155.847566,5.22550842 157.001451,5.89614574 L154.909072,9.03594774 C154.109044,8.60917853 152.970543,8.24337636 151.493569,8.24337636 C150.44738,8.24337636 150.016595,8.67014556 150.016595,9.52368397 C150.016595,10.1943213 150.816623,10.5601235 152.185901,11.1697938 C154.462902,12.1757497 155.678329,13.2121892 155.678329,15.5594198 C155.678329,19.3088921 152.909003,20.2843646 150.170447,20.2843646 C147.33958,20.2843646 145.385667,19.5984855 143.924078,18.7754306 Z"></path>
                                            </g>
                                        </g>
                                        <path d="M158.995651,37.7970675 C158.615599,37.7970675 158.29256,37.665206 158.026524,37.4014791 C157.760488,37.1377523 157.627472,36.8024474 157.627472,36.3955545 C157.627472,35.9585214 157.760488,35.6081467 158.026524,35.3444198 C158.29256,35.080693 158.615599,34.9488315 158.995651,34.9488315 C159.360501,34.9488315 159.675939,35.080693 159.941975,35.3444198 C160.208011,35.6081467 160.341027,35.9585214 160.341027,36.3955545 C160.341027,36.8024474 160.208011,37.1377523 159.941975,37.4014791 C159.675939,37.665206 159.360501,37.7970675 158.995651,37.7970675 Z M167.820405,37.7970675 C167.090706,37.7970675 166.406623,37.6689735 165.768137,37.4127817 C165.12965,37.1565899 164.578583,36.7836103 164.11492,36.2938318 C163.651258,35.8040533 163.286413,35.2012581 163.020377,34.485428 C162.754341,33.769598 162.621325,32.9595919 162.621325,32.0553854 C162.621325,31.1361089 162.765743,30.3185679 163.054582,29.6027378 C163.343421,28.8869077 163.731068,28.280345 164.217534,27.7830315 C164.704,27.2857179 165.270268,26.9089709 165.916356,26.6527791 C166.562444,26.3965873 167.242726,26.2684933 167.957223,26.2684933 C168.686922,26.2684933 169.310197,26.3965873 169.827067,26.6527791 C170.343938,26.9089709 170.799993,27.2103685 171.195246,27.556981 L170.237521,28.7776536 C169.918278,28.4913215 169.580037,28.2577384 169.222788,28.0768971 C168.86554,27.8960558 168.466492,27.8056365 168.025632,27.8056365 C167.523964,27.8056365 167.060308,27.9073582 166.63465,28.1108047 C166.208992,28.3142511 165.844148,28.6043463 165.540107,28.981099 C165.236066,29.3578517 164.996637,29.8061806 164.821813,30.3260993 C164.646989,30.846018 164.559579,31.4224409 164.559579,32.0553854 C164.559579,32.6883299 164.643189,33.2609854 164.810411,33.773369 C164.977634,34.2857527 165.209462,34.7265467 165.505902,35.0957643 C165.802343,35.4649819 166.163386,35.7513097 166.589044,35.9547561 C167.014702,36.1582026 167.478358,36.2599243 167.980026,36.2599243 C168.496896,36.2599243 168.971953,36.1506676 169.405212,35.9321511 C169.838471,35.7136345 170.229918,35.4536791 170.579566,35.1522769 L171.400473,36.3955545 C170.898805,36.8325876 170.343938,37.1754274 169.735855,37.4240842 C169.127773,37.672741 168.489296,37.7970675 167.820405,37.7970675 Z M177.671293,37.7970675 C176.9872,37.7970675 176.337322,37.6689735 175.721638,37.4127817 C175.105955,37.1565899 174.562489,36.7836103 174.091225,36.2938318 C173.619961,35.8040533 173.243716,35.2012581 172.962477,34.485428 C172.681239,33.769598 172.540622,32.9595919 172.540622,32.0553854 C172.540622,31.1361089 172.681239,30.3185679 172.962477,29.6027378 C173.243716,28.8869077 173.619961,28.280345 174.091225,27.7830315 C174.562489,27.2857179 175.105955,26.9089709 175.721638,26.6527791 C176.337322,26.3965873 176.9872,26.2684933 177.671293,26.2684933 C178.355386,26.2684933 179.005264,26.3965873 179.620948,26.6527791 C180.236632,26.9089709 180.780097,27.2857179 181.251361,27.7830315 C181.722625,28.280345 182.098871,28.8869077 182.380109,29.6027378 C182.661347,30.3185679 182.801964,31.1361089 182.801964,32.0553854 C182.801964,32.9595919 182.661347,33.769598 182.380109,34.485428 C182.098871,35.2012581 181.722625,35.8040533 181.251361,36.2938318 C180.780097,36.7836103 180.236632,37.1565899 179.620948,37.4127817 C179.005264,37.6689735 178.355386,37.7970675 177.671293,37.7970675 Z M177.671293,36.2599243 C178.142557,36.2599243 178.575809,36.1582026 178.971063,35.9547561 C179.366317,35.7513097 179.704558,35.4649819 179.985796,35.0957643 C180.267034,34.7265467 180.48366,34.2857527 180.635681,33.773369 C180.787701,33.2609854 180.863711,32.6883299 180.863711,32.0553854 C180.863711,31.4224409 180.787701,30.846018 180.635681,30.3260993 C180.48366,29.8061806 180.267034,29.3578517 179.985796,28.981099 C179.704558,28.6043463 179.366317,28.3142511 178.971063,28.1108047 C178.575809,27.9073582 178.142557,27.8056365 177.671293,27.8056365 C177.200029,27.8056365 176.766777,27.9073582 176.371523,28.1108047 C175.976269,28.3142511 175.638029,28.6043463 175.35679,28.981099 C175.075552,29.3578517 174.858926,29.8061806 174.706905,30.3260993 C174.554885,30.846018 174.478876,31.4224409 174.478876,32.0553854 C174.478876,32.6883299 174.554885,33.2609854 174.706905,33.773369 C174.858926,34.2857527 175.075552,34.7265467 175.35679,35.0957643 C175.638029,35.4649819 175.976269,35.7513097 176.371523,35.9547561 C176.766777,36.1582026 177.200029,36.2599243 177.671293,36.2599243 Z M185.720746,37.5258069 L185.720746,26.5397539 L187.271348,26.5397539 L187.430969,28.1221072 L187.499378,28.1221072 C187.985844,27.5946534 188.514108,27.1538594 189.084185,26.7997119 C189.654263,26.4455644 190.273738,26.2684933 190.942628,26.2684933 C191.793944,26.2684933 192.459024,26.4530993 192.937889,26.822317 C193.416754,27.1915346 193.770197,27.707678 193.998228,28.3707627 C194.575906,27.7378182 195.157377,27.2292097 195.742656,26.844922 C196.327936,26.4606343 196.962612,26.2684933 197.646705,26.2684933 C198.78686,26.2684933 199.634362,26.6301704 200.189237,27.3535356 C200.744113,28.0769007 201.021546,29.1468623 201.021546,30.5634523 L201.021546,37.5258069 L199.151702,37.5258069 L199.151702,30.8121078 C199.151702,29.7722704 198.984482,29.0225439 198.650036,28.5629056 C198.315591,28.1032674 197.798728,27.8734517 197.099433,27.8734517 C196.26332,27.8734517 195.336008,28.4385722 194.31747,29.5688302 L194.31747,37.5258069 L192.447625,37.5258069 L192.447625,30.8121078 C192.447625,29.7722704 192.280405,29.0225439 191.94596,28.5629056 C191.611514,28.1032674 191.087051,27.8734517 190.372554,27.8734517 C189.53644,27.8734517 188.609128,28.4385722 187.59059,29.5688302 L187.59059,37.5258069 L185.720746,37.5258069 Z" id=".com" fill="#003049"></path>
                                    </g>
                                </g>
                            </g>
                            <g id="noun_Ok_1659538" transform="translate(9.212823, 6.019152)" fill="#FFFFFF" fill-rule="nonzero">
                                <path d="M15.8270482,12.5997191 C15.6963571,12.5997191 15.5669382,12.6083092 15.4394549,12.6253519 C15.4565725,12.4988947 15.4652005,12.3704826 15.4652005,12.2409418 C15.4652005,10.9952294 14.674362,9.90185484 13.4972024,9.52041823 C12.9553573,9.34476025 12.1279607,9.14539671 11.1650614,9.14539671 L11.1467824,9.14539671 C11.4696661,8.61575212 11.9246236,7.91548802 12.4780833,7.18625963 C13.5718949,5.74509332 13.4708762,4.31020444 12.2076032,3.3480778 C11.6364175,2.91295262 10.5324571,2.43873115 9.02411761,3.45818066 C9.03824861,3.36473502 9.05307095,3.26740729 9.06946956,3.16165458 C9.35247678,1.33412331 8.17841438,0.260654849 6.9679045,0.036567033 C5.61406586,-0.214640392 4.43173503,0.869951244 4.11263982,2.01803305 C3.97445465,2.51527177 3.78533149,3.30628331 3.58279633,4.28506717 C3.28977849,4.19118102 2.91805843,4.14203533 2.41639398,4.18294877 C1.36337151,4.2691258 0.100706884,5.03370605 0.00748650679,6.905317 C-0.105008449,9.16813864 1.06758831,15.3193891 2.35953812,19.1887103 C2.52474089,19.8094878 2.75141767,20.4337069 3.05137657,21.058449 C4.45153503,23.9747844 6.80090424,25.5415269 10.233549,25.8483502 C10.4643738,25.8689446 10.7211378,25.8823529 10.998393,25.8823529 C12.8437472,25.8823529 15.5899183,25.2851984 17.5308711,22.2232707 C18.8379198,20.1613544 19.2890887,16.7942278 18.5578992,14.5575621 C18.1750624,13.3865181 17.0776558,12.5997191 15.8270482,12.5997191 Z M5.24721284,2.3306657 C5.42433433,1.69287307 6.10621747,1.06892933 6.75278693,1.1887512 C7.39465527,1.30755436 8.08190322,1.8487351 7.90627503,2.98310568 C7.74823455,4.00343623 7.69270607,4.46691998 7.67304434,4.66939471 C6.65641404,5.73702627 5.08983605,7.57372588 3.86173846,9.85995023 C4.24692584,6.6168029 4.90591178,3.55831672 5.24721284,2.3306657 Z M2.39994007,13.5294398 C2.33860433,13.7693038 2.28313115,14.0113704 2.23515211,14.2557773 C1.57129913,11.3149654 1.11509724,8.33139545 1.18318047,6.96319052 C1.25283996,5.56241453 2.21850462,5.37494507 2.51276687,5.35090911 C2.94800731,5.31522686 3.18367152,5.36756633 3.35277345,5.45311011 C2.91399335,7.79126094 2.47737023,10.7995277 2.3974789,13.4947763 C2.3971194,13.5066153 2.39960823,13.5177385 2.39994007,13.5294398 Z M16.5354788,21.597675 C14.7322134,24.4425082 12.1698283,24.8442914 10.338854,24.6811057 C8.50616517,24.5172592 5.92038509,23.9417178 4.29717248,20.9133522 C4.28710656,20.8708694 4.27339036,20.8287721 4.2531479,20.7879688 C4.00597978,20.2889955 3.75178764,19.6404101 3.50047148,18.8951577 C1.86760775,12.7451738 7.15315614,6.83205276 8.94016119,5.05286874 C9.62674545,4.36942706 10.2382501,4.02667374 10.7676788,4.02667374 C11.0296416,4.02667374 11.2716109,4.1106757 11.4925357,4.27878974 C11.7616331,4.48376993 12.5804847,5.10746588 11.5389661,6.4796355 C10.6095001,7.70439559 9.95316887,8.83361757 9.68880019,9.31084009 C8.22036493,9.65097781 6.63135985,10.5822955 5.32314971,12.6998276 C5.15280336,12.9754014 5.2392486,13.3363537 5.51614437,13.5058444 C5.79281891,13.6754452 6.15535796,13.5893783 6.32570431,13.3136944 C8.51368695,9.77214877 11.5297575,10.1146818 13.1328106,10.63469 C13.9308666,10.8933312 14.2881238,11.6277082 14.2881238,12.2408867 C14.2881238,12.6924764 14.1093708,13.1196997 13.785934,13.4427672 C13.3344332,13.8911631 12.6647453,14.0572122 12.0797881,13.8662186 C10.982271,13.5077717 9.65857478,13.8885475 8.70681989,14.8358891 C7.3376888,16.1991382 7.14400279,18.2353115 8.26577219,19.4712774 C8.96510477,20.2416945 10.0273082,20.7178983 11.1071271,20.7451281 C11.9646108,20.7643458 12.713388,20.5055945 13.2112086,20.0099526 C14.414335,18.812202 14.5712417,17.1171852 14.1930783,15.968415 C14.000775,15.3851094 14.1672222,14.7193987 14.6176998,14.2719114 C14.9418556,13.9492844 15.3712888,13.7715615 15.8270482,13.7715615 C16.5779824,13.7715615 17.2106421,14.2224629 17.4387016,14.9201114 C18.0633417,16.831149 17.6581331,19.8266681 16.5354788,21.597675 Z M13.0746827,16.3337726 C13.3406553,17.1416341 13.2287134,18.335365 12.379028,19.1813316 C12.1152401,19.443965 11.6646519,19.586694 11.13691,19.5736436 C10.3731998,19.5544258 9.62641361,19.2224102 9.1391567,18.6855796 C8.36684619,17.8346847 8.74547966,16.454861 9.53916641,15.6646203 C10.0307926,15.1751458 10.6474685,14.9030136 11.2149486,14.9030136 C11.3870094,14.9030136 11.5547287,14.9280683 11.7129074,14.979802 C12.1221258,15.1134728 12.5468302,15.149513 12.9582332,15.0949434 C12.9038662,15.5041604 12.9404243,15.9264554 13.0746827,16.3337726 Z" id="Shape"></path>
                            </g>
                        </g>
                    </g>
                </g>
            </g>
        </g>
    </g>
</svg>